<?xml version="1.0" standalone="no"?>
<!DOCTYPE svg PUBLIC "-//W3C//DTD SVG 20010904//EN"
 "http://www.w3.org/TR/2001/REC-SVG-20010904/DTD/svg10.dtd">
<svg version="1.0" xmlns="http://www.w3.org/2000/svg"
 width="385.000000pt" height="488.000000pt" viewBox="0 0 385.000000 488.000000"
 preserveAspectRatio="xMidYMid meet">

<g transform="translate(0.000000,488.000000) scale(0.100000,-0.100000)"
fill="#000000" stroke="none">
<path d="M3081 4859 c-47 -9 -78 -26 -110 -61 -20 -21 -21 -21 -61 -3 -34 15
-57 17 -157 12 -131 -7 -254 -27 -298 -48 -16 -8 -37 -28 -47 -44 -20 -35 -47
-189 -49 -284 -2 -61 -1 -65 31 -91 18 -15 68 -49 111 -76 43 -27 78 -51 79
-54 0 -3 -27 -13 -59 -22 -132 -39 -202 -134 -202 -271 0 -55 6 -89 20 -123
l21 -46 -23 5 c-12 3 -62 14 -112 26 -249 58 -565 27 -769 -76 -226 -113 -371
-278 -455 -518 -40 -112 -55 -226 -48 -354 10 -189 71 -328 222 -506 210 -248
251 -305 279 -388 41 -121 8 -203 -128 -312 -166 -134 -335 -187 -528 -165
-128 15 -225 69 -279 157 -27 43 -36 154 -19 235 8 37 40 114 78 188 35 69 74
143 85 165 29 56 33 131 12 199 -10 31 -24 61 -31 67 -18 15 -18 9 3 -32 10
-19 19 -64 21 -100 4 -71 -9 -108 -82 -222 -89 -139 -137 -273 -137 -382 -1
-139 52 -220 188 -287 l87 -43 145 0 c112 0 160 5 206 19 202 61 387 225 413
368 20 105 -22 234 -115 355 -191 247 -247 326 -281 397 -63 131 -76 192 -76
341 1 160 22 246 95 392 158 315 493 491 899 470 63 -4 124 -9 135 -11 11 -3
50 -12 87 -21 199 -47 400 -159 540 -302 160 -162 206 -267 213 -488 4 -122
-4 -177 -39 -275 -34 -91 -129 -245 -190 -306 -50 -49 -157 -142 -212 -184
-150 -115 -258 -244 -303 -366 -29 -77 -26 -88 9 -25 38 68 146 189 213 238
113 81 298 236 355 297 59 64 141 189 181 278 12 26 31 87 42 135 18 75 20
108 16 218 -9 216 -60 333 -221 503 -93 99 -199 177 -334 246 -60 30 -113 64
-117 73 -4 10 -9 56 -12 103 -4 71 -1 94 17 142 26 69 98 138 174 167 l49 18
72 -41 72 -41 -47 -45 c-96 -92 -102 -180 -20 -303 43 -65 232 -298 298 -367
45 -48 151 -215 181 -287 59 -137 76 -256 60 -402 -17 -154 -87 -315 -209
-481 -69 -94 -283 -323 -441 -472 -125 -117 -142 -130 -194 -143 -53 -14 -59
-14 -72 2 -13 17 -14 17 -8 -3 4 -16 -4 -31 -29 -56 -68 -68 -68 -158 -1 -217
65 -56 139 -49 167 17 7 15 13 28 14 30 1 2 23 -12 50 -29 26 -18 75 -43 108
-55 52 -18 63 -26 73 -55 17 -48 16 -123 -2 -166 l-15 -36 -98 6 c-162 11
-288 63 -374 155 -73 77 -118 186 -118 283 0 26 -3 56 -7 66 -10 24 -21 -74
-12 -102 4 -11 12 -53 18 -94 16 -104 61 -191 124 -241 85 -68 201 -113 327
-127 93 -10 98 -15 54 -48 -104 -80 -262 -100 -372 -48 -185 88 -263 307 -182
513 12 30 17 50 11 45 -22 -22 -62 -150 -67 -219 -13 -142 55 -279 181 -365
158 -109 408 -65 537 93 101 125 88 273 -34 395 -46 47 -151 111 -179 111 -8
0 9 -13 38 -28 55 -29 123 -86 123 -103 0 -15 -155 70 -197 108 -40 37 -56 44
-27 12 25 -27 25 -91 0 -118 -34 -38 -109 -20 -151 35 -35 46 -7 130 58 178
42 31 198 30 278 -2 148 -59 269 -163 324 -277 81 -168 45 -385 -84 -512 -49
-49 -192 -133 -224 -133 -9 0 -51 16 -94 36 -124 58 -195 84 -225 84 -16 0
-78 -16 -139 -36 l-111 -36 -40 28 c-89 62 -208 229 -250 353 -19 55 -22 88
-23 196 0 143 15 212 60 279 14 21 24 41 21 44 -10 9 -113 -65 -140 -101 -66
-86 -72 -169 -25 -357 38 -154 58 -280 53 -342 -7 -111 -79 -203 -202 -261
-64 -31 -72 -32 -192 -31 -116 0 -132 3 -227 36 -121 42 -220 96 -344 190
-144 108 -144 102 0 -22 119 -102 175 -141 261 -184 41 -21 82 -41 91 -46 40
-21 148 -40 223 -40 136 0 247 40 342 123 78 69 114 152 114 272 l1 70 27 -32
c44 -51 149 -139 187 -157 19 -9 35 -20 35 -25 0 -4 -16 -15 -35 -24 l-35 -17
0 -82 c0 -86 19 -177 42 -205 46 -56 463 -328 498 -326 14 1 104 50 201 108
l176 106 6 126 c4 69 4 129 1 135 -3 5 -58 35 -122 67 -117 59 -117 59 -87 71
77 29 125 60 181 115 67 66 119 138 136 188 13 39 28 58 38 52 14 -9 201 15
285 36 154 40 297 114 383 200 59 59 113 161 132 249 16 79 22 506 7 519 -7 5
-34 15 -62 22 -35 9 -64 27 -106 65 -84 77 -174 117 -278 122 -188 10 -330
-62 -410 -207 -22 -41 -37 -57 -63 -65 l-33 -11 2 -143 c2 -78 7 -151 13 -162
12 -22 138 -89 238 -126 35 -14 74 -31 87 -40 31 -20 61 -15 185 35 52 21 97
34 98 29 6 -13 -41 -80 -85 -122 -77 -74 -227 -125 -373 -126 l-55 0 -30 57
c-33 64 -106 142 -178 192 -88 60 -222 110 -297 111 l-35 1 26 22 c14 12 77
65 140 119 114 96 329 302 404 388 142 160 231 316 266 465 18 75 20 110 16
215 -3 69 -10 141 -16 160 -7 19 -17 51 -23 70 -47 153 -136 278 -375 522
-106 108 -202 212 -213 230 -36 59 -22 153 31 209 46 48 87 71 117 65 31 -7
297 52 405 90 75 27 97 44 97 77 0 10 18 39 39 65 65 79 85 127 86 207 0 62
-5 78 -39 142 -89 167 -189 229 -325 202z m104 -30 c64 -16 126 -75 170 -161
51 -100 57 -166 22 -242 -14 -31 -27 -56 -29 -56 -2 0 -1 38 1 85 4 96 -1 105
-63 137 -136 68 -316 173 -316 185 0 19 97 63 138 63 18 0 53 -5 77 -11z
m-308 -61 c15 -7 60 -32 100 -55 40 -23 116 -66 170 -94 108 -58 142 -79 128
-79 -6 0 -89 -14 -185 -30 -96 -16 -185 -30 -198 -30 -37 0 -441 245 -427 259
7 7 266 38 332 40 29 0 65 -5 80 -11z m-134 -253 c54 -32 100 -61 102 -65 3
-4 -2 -59 -10 -121 -8 -63 -16 -133 -17 -157 l-3 -43 -160 91 c-169 97 -265
159 -265 171 0 30 22 224 31 266 l10 51 107 -67 c59 -37 151 -94 205 -126z
m650 -2355 c177 -33 313 -165 363 -350 23 -89 24 -264 0 -350 -46 -169 -151
-275 -362 -364 -85 -36 -235 -81 -299 -91 -22 -3 -50 -8 -61 -11 -21 -4 -22 0
-22 79 1 45 -2 92 -6 103 -6 21 -2 22 81 29 231 18 377 102 456 264 30 62 32
72 32 176 0 104 -2 114 -33 177 -69 141 -232 229 -337 183 -48 -21 -217 -66
-224 -60 -11 11 36 89 76 126 88 81 207 112 336 89z m-7 -208 c65 -43 114 -99
92 -106 -7 -3 -61 -21 -120 -41 l-107 -37 -108 40 c-59 22 -132 47 -160 57
-91 29 -89 30 82 70 61 14 133 32 160 40 76 21 97 18 161 -23z m398 20 c4 -2
2 -8 -5 -13 -13 -8 -39 6 -39 22 0 8 22 3 44 -9z m26 -69 l-1 -48 -19 35 c-24
44 -24 47 -2 53 9 3 18 5 20 6 1 0 2 -20 2 -46z m-287 -134 c19 -58 22 -127 7
-179 -9 -33 -15 -37 -122 -78 -62 -23 -117 -44 -123 -45 -11 -2 -20 199 -10
249 5 28 12 33 108 66 56 20 107 37 113 37 6 1 18 -22 27 -50z m-1751 -256
c-48 -68 -82 -157 -98 -253 -5 -36 -8 -41 -15 -25 -4 11 -8 47 -8 80 -1 74 30
146 83 193 45 39 64 42 38 5z m609 -829 c34 -20 132 -69 218 -108 215 -99 202
-89 139 -115 -29 -12 -93 -45 -143 -73 l-90 -51 -30 18 c-16 10 -113 60 -215
113 -102 52 -205 108 -230 123 -52 32 -64 23 120 85 69 23 135 43 147 43 12 1
50 -15 84 -35z m-320 -142 c41 -27 142 -83 224 -127 225 -117 205 -93 205
-241 l0 -125 -32 17 c-40 21 -183 112 -343 220 l-120 81 -6 49 c-13 95 -17
174 -9 174 4 0 41 -22 81 -48z"/>
<path d="M470 3029 c-332 -109 -330 -109 -330 -140 0 -11 -6 -19 -14 -19 -22
0 -65 -40 -86 -79 -42 -82 -34 -212 16 -278 29 -38 71 -61 169 -92 39 -13 92
-36 118 -53 47 -30 97 -84 97 -106 0 -6 4 -13 9 -16 15 -10 -6 76 -26 103 -37
49 -102 89 -185 115 -154 47 -183 81 -183 211 0 66 4 87 24 122 25 44 49 61
56 40 2 -6 7 -60 10 -118 4 -58 12 -116 18 -129 12 -22 216 -153 268 -172 35
-12 105 17 302 126 99 54 149 88 153 101 3 11 6 83 7 160 l2 140 -120 48
c-147 60 -210 67 -305 36z m253 -61 c59 -23 107 -45 107 -49 0 -4 -15 -12 -32
-20 -18 -7 -102 -41 -187 -76 l-154 -64 -71 37 c-39 20 -100 53 -136 73 l-65
35 175 57 c204 66 208 67 363 7z m127 -185 c0 -60 -4 -113 -8 -120 -4 -7 -30
-24 -57 -39 -76 -41 -316 -164 -320 -164 -1 0 -4 61 -4 135 -2 132 -1 135 21
144 45 19 313 132 333 141 11 5 23 9 28 9 4 1 7 -47 7 -106z"/>
<path d="M1631 2419 c-79 -31 -124 -101 -124 -190 0 -94 49 -150 145 -164 86
-13 178 35 218 114 19 36 17 120 -3 159 -10 18 -36 46 -59 62 -34 25 -50 30
-97 29 -31 0 -67 -5 -80 -10z m50 -13 c-17 -21 2 -54 36 -62 21 -6 31 -1 51
22 l25 28 23 -27 c55 -64 54 -150 -3 -218 -74 -87 -232 -78 -274 15 -33 73
-20 152 33 203 44 41 138 75 109 39z"/>
<path d="M2043 2366 c-95 -31 -142 -95 -143 -196 0 -119 91 -185 219 -159 141
28 208 194 119 295 -55 62 -123 83 -195 60z m29 -18 c-14 -14 0 -43 29 -58 25
-14 69 10 69 37 0 13 5 12 26 -8 76 -71 72 -175 -9 -246 -40 -35 -88 -48 -148
-40 -56 7 -88 31 -111 84 -46 103 30 239 137 242 14 1 16 -2 7 -11z"/>
<path d="M431 2174 c-7 -20 -37 -74 -66 -119 -120 -185 -165 -320 -165 -496 0
-137 36 -231 112 -293 18 -15 42 -35 52 -43 34 -28 162 -82 233 -100 90 -22
290 -21 398 2 110 23 179 47 298 105 70 33 104 45 108 37 11 -23 30 -234 23
-263 -14 -62 -51 -110 -102 -132 -65 -28 -163 -37 -237 -22 -73 15 -215 80
-321 148 -43 28 -110 66 -149 84 -65 31 -77 33 -175 33 -94 0 -110 -3 -155
-27 -55 -29 -133 -106 -161 -159 -27 -51 -42 -129 -37 -189 12 -152 159 -304
293 -304 68 0 103 21 124 75 28 70 19 93 -67 161 -92 72 -113 136 -59 178 32
26 88 22 152 -10 22 -11 40 -18 40 -15 0 10 -125 65 -148 65 -53 0 -112 -52
-112 -98 0 -38 39 -97 89 -136 76 -57 89 -108 41 -156 -82 -82 -289 84 -307
244 -11 90 50 219 128 276 128 92 257 72 479 -76 182 -121 327 -171 464 -161
83 6 142 25 195 61 89 62 109 172 71 386 -32 178 -36 252 -16 304 36 93 185
203 301 222 33 5 42 9 27 12 -39 6 -156 -35 -221 -79 -119 -80 -171 -165 -171
-283 l0 -74 -70 -36 c-208 -110 -528 -160 -710 -113 -106 28 -224 92 -279 153
-65 71 -83 125 -82 254 1 163 36 289 124 444 50 88 79 154 75 167 -2 6 -10 -6
-17 -27z"/>
<path d="M1818 1753 c7 -3 16 -2 19 1 4 3 -2 6 -13 5 -11 0 -14 -3 -6 -6z"/>
<path d="M2438 1463 c7 -3 16 -2 19 1 4 3 -2 6 -13 5 -11 0 -14 -3 -6 -6z"/>
</g>
</svg>
